<svg width="1080" height="1920" viewBox="0 0 1080 1920" fill="none" xmlns="http://www.w3.org/2000/svg">
<g clip-path="url(#clip0_3_315)">
<path d="M1080 1920H0V0H1080V1920ZM98 277V1540H982V277H98Z" fill="white"/>
<path d="M1080 1920H0V0H1080V1920ZM98 277V1540H982V277H98Z" fill="url(#paint0_linear_3_315)"/>
<g clip-path="url(#clip1_3_315)">
<rect width="887.821" height="216.335" transform="translate(96.0894 62)" fill="#EDEDED"/>
<path d="M336.99 206.627C340.151 206.627 342.357 207.534 343.608 209.349C344.891 211.132 345.533 214.277 345.533 218.783C345.533 223.288 344.735 226.464 343.139 228.31C341.574 230.125 338.68 231.033 334.456 231.033C333.142 231.033 330.967 230.907 327.932 230.657L326.618 230.516V196.864H330.091V208.269C332.469 207.174 334.769 206.627 336.99 206.627ZM334.409 227.888C337.475 227.888 339.494 227.2 340.464 225.823C341.465 224.415 341.965 222.052 341.965 218.736C341.965 215.419 341.574 213.104 340.792 211.789C340.01 210.444 338.617 209.771 336.615 209.771C334.8 209.771 332.938 210.115 331.03 210.804L330.091 211.132V227.653C332.125 227.81 333.564 227.888 334.409 227.888Z" fill="#333333"/>
<path d="M319.673 214.183V226.198C319.767 227.356 320.674 228.044 322.395 228.264L322.254 231.033C319.782 231.033 317.921 230.407 316.669 229.155C313.853 230.407 311.037 231.033 308.221 231.033C306.062 231.033 304.419 230.423 303.293 229.202C302.166 227.982 301.603 226.23 301.603 223.946C301.603 221.661 302.182 219.987 303.34 218.924C304.497 217.828 306.312 217.156 308.784 216.905L316.153 216.201V214.183C316.153 212.587 315.809 211.445 315.12 210.757C314.432 210.069 313.493 209.724 312.304 209.724C309.801 209.724 307.204 209.881 304.513 210.194L303.058 210.335L302.917 207.659C306.359 206.971 309.41 206.627 312.069 206.627C314.729 206.627 316.653 207.237 317.842 208.457C319.063 209.677 319.673 211.586 319.673 214.183ZM305.217 223.758C305.217 226.636 306.406 228.076 308.784 228.076C310.912 228.076 313.008 227.716 315.073 226.996L316.153 226.621V218.877L309.206 219.534C307.798 219.659 306.781 220.066 306.156 220.754C305.53 221.442 305.217 222.444 305.217 223.758Z" fill="#333333"/>
<path d="M292.523 230.563V196.864H296.044V230.563H292.523Z" fill="#333333"/>
<path d="M281.878 230.563V225.213H285.727V230.563H281.878Z" fill="#333333"/>
<path fill-rule="evenodd" clip-rule="evenodd" d="M270.821 103.604H137.693V236.731H270.821V103.604ZM272.425 102V238.335H136.089V102H272.425Z" fill="#333333"/>
<path d="M262.046 229.649H253.008L244.805 219.481L248.957 214.761L262.046 229.649Z" fill="#333333"/>
<path d="M261.881 196.832L233.171 229.649H224.514L253.224 196.832H261.881Z" fill="#333333"/>
<path d="M241.783 206.45L237.642 211.165L225.042 196.832H233.705L241.783 206.45Z" fill="#333333"/>
<path d="M223.492 224.02V229.649H189.703V196.832H223.435V202.462H196.81V210.625H218.629V215.959H196.81V224.02H223.492Z" fill="#333333"/>
<path d="M186.874 196.832V229.649H179.767L154.046 205.814V229.649H146.933V196.832H154.046L179.767 220.862V196.832H186.874Z" fill="#333333"/>
<path d="M599.072 206.335H602.924L605.768 220.987H606.488L609.908 206.695H613.94L617.36 220.987H618.08L620.888 206.335H624.776L620.96 224.335H614.732L611.924 211.987L609.116 224.335H602.888L599.072 206.335ZM640.925 221.095L641.933 220.987L642.005 223.903C639.269 224.455 636.845 224.731 634.733 224.731C632.069 224.731 630.149 223.999 628.973 222.535C627.821 221.071 627.245 218.731 627.245 215.515C627.245 209.131 629.849 205.939 635.057 205.939C640.097 205.939 642.617 208.687 642.617 214.183L642.365 216.991H631.205C631.229 218.479 631.553 219.571 632.177 220.267C632.801 220.963 633.965 221.311 635.669 221.311C637.373 221.311 639.125 221.239 640.925 221.095ZM638.765 213.967C638.765 212.191 638.477 210.955 637.901 210.259C637.349 209.539 636.401 209.179 635.057 209.179C633.713 209.179 632.729 209.551 632.105 210.295C631.505 211.039 631.193 212.263 631.169 213.967H638.765ZM658.224 224.335H654.3V206.335H658.188V207.451C659.892 206.443 661.452 205.939 662.868 205.939C664.956 205.939 666.48 206.527 667.44 207.703C669.624 206.527 671.796 205.939 673.956 205.939C676.116 205.939 677.64 206.611 678.528 207.955C679.416 209.275 679.86 211.519 679.86 214.687V224.335H675.972V214.795C675.972 212.851 675.768 211.471 675.36 210.655C674.976 209.839 674.16 209.431 672.912 209.431C671.832 209.431 670.668 209.671 669.42 210.151L668.808 210.403C669 210.883 669.096 212.419 669.096 215.011V224.335H665.208V215.083C665.208 212.947 665.016 211.471 664.632 210.655C664.248 209.839 663.408 209.431 662.112 209.431C660.912 209.431 659.796 209.671 658.764 210.151L658.224 210.367V224.335ZM697.784 211.879V220.087C697.808 220.615 697.94 221.011 698.18 221.275C698.444 221.515 698.84 221.671 699.368 221.743L699.26 224.731C697.196 224.731 695.6 224.287 694.472 223.399C692.552 224.287 690.62 224.731 688.676 224.731C685.1 224.731 683.312 222.823 683.312 219.007C683.312 217.183 683.792 215.863 684.752 215.047C685.736 214.231 687.236 213.739 689.252 213.571L693.896 213.175V211.879C693.896 210.919 693.68 210.247 693.248 209.863C692.84 209.479 692.228 209.287 691.412 209.287C689.876 209.287 687.956 209.383 685.652 209.575L684.5 209.647L684.356 206.875C686.972 206.251 689.372 205.939 691.556 205.939C693.764 205.939 695.348 206.419 696.308 207.379C697.292 208.315 697.784 209.815 697.784 211.879ZM689.72 216.343C688.064 216.487 687.236 217.387 687.236 219.043C687.236 220.699 687.968 221.527 689.432 221.527C690.632 221.527 691.904 221.335 693.248 220.951L693.896 220.735V215.947L689.72 216.343ZM706.634 224.335H702.71V198.847H706.634V213.571L708.866 213.355L713.114 206.335H717.506L712.322 214.759L717.794 224.335H713.366L708.974 216.739L706.634 216.991V224.335ZM733.105 221.095L734.113 220.987L734.185 223.903C731.449 224.455 729.025 224.731 726.913 224.731C724.249 224.731 722.329 223.999 721.153 222.535C720.001 221.071 719.425 218.731 719.425 215.515C719.425 209.131 722.029 205.939 727.237 205.939C732.277 205.939 734.797 208.687 734.797 214.183L734.545 216.991H723.385C723.409 218.479 723.733 219.571 724.357 220.267C724.981 220.963 726.145 221.311 727.849 221.311C729.553 221.311 731.305 221.239 733.105 221.095ZM730.945 213.967C730.945 212.191 730.657 210.955 730.081 210.259C729.529 209.539 728.581 209.179 727.237 209.179C725.893 209.179 724.909 209.551 724.285 210.295C723.685 211.039 723.373 212.263 723.349 213.967H730.945ZM756.164 209.683H751.196V217.603C751.196 219.067 751.304 220.039 751.52 220.519C751.736 220.999 752.288 221.239 753.176 221.239L756.128 221.131L756.308 224.263C754.7 224.575 753.476 224.731 752.636 224.731C750.596 224.731 749.192 224.263 748.424 223.327C747.68 222.391 747.308 220.627 747.308 218.035V209.683H745.004V206.335H747.308V201.115H751.196V206.335H756.164V209.683ZM772.198 221.095L773.206 220.987L773.278 223.903C770.542 224.455 768.118 224.731 766.006 224.731C763.342 224.731 761.422 223.999 760.246 222.535C759.094 221.071 758.518 218.731 758.518 215.515C758.518 209.131 761.122 205.939 766.33 205.939C771.37 205.939 773.89 208.687 773.89 214.183L773.638 216.991H762.478C762.502 218.479 762.826 219.571 763.45 220.267C764.074 220.963 765.238 221.311 766.942 221.311C768.646 221.311 770.398 221.239 772.198 221.095ZM770.038 213.967C770.038 212.191 769.75 210.955 769.174 210.259C768.622 209.539 767.674 209.179 766.33 209.179C764.986 209.179 764.002 209.551 763.378 210.295C762.778 211.039 762.466 212.263 762.442 213.967H770.038ZM784.396 205.939C785.668 205.939 787.168 206.107 788.896 206.443L789.796 206.623L789.652 209.719C787.756 209.527 786.352 209.431 785.44 209.431C783.616 209.431 782.392 209.839 781.768 210.655C781.144 211.471 780.832 213.007 780.832 215.263C780.832 217.519 781.132 219.079 781.732 219.943C782.332 220.807 783.58 221.239 785.476 221.239L789.688 220.951L789.796 224.083C787.372 224.515 785.548 224.731 784.324 224.731C781.588 224.731 779.656 223.999 778.528 222.535C777.424 221.047 776.872 218.623 776.872 215.263C776.872 211.903 777.46 209.515 778.636 208.099C779.812 206.659 781.732 205.939 784.396 205.939ZM797.513 224.335H793.589V198.847H797.513V207.271C799.289 206.383 800.933 205.939 802.445 205.939C804.845 205.939 806.477 206.623 807.341 207.991C808.229 209.335 808.673 211.567 808.673 214.687V224.335H804.749V214.795C804.749 212.851 804.545 211.471 804.137 210.655C803.729 209.839 802.865 209.431 801.545 209.431C800.393 209.431 799.241 209.623 798.089 210.007L797.513 210.223V224.335ZM833.644 210.043C830.812 209.659 828.76 209.467 827.488 209.467C826.216 209.467 825.328 209.623 824.824 209.935C824.344 210.223 824.104 210.691 824.104 211.339C824.104 211.987 824.368 212.443 824.896 212.707C825.448 212.971 826.72 213.283 828.712 213.643C830.728 213.979 832.156 214.519 832.996 215.263C833.836 216.007 834.256 217.327 834.256 219.223C834.256 221.119 833.644 222.511 832.42 223.399C831.22 224.287 829.456 224.731 827.128 224.731C825.664 224.731 823.816 224.527 821.584 224.119L820.468 223.939L820.612 220.663C823.492 221.047 825.568 221.239 826.84 221.239C828.112 221.239 829.012 221.083 829.54 220.771C830.092 220.459 830.368 219.943 830.368 219.223C830.368 218.503 830.104 218.011 829.576 217.747C829.072 217.459 827.836 217.159 825.868 216.847C823.924 216.511 822.496 215.995 821.584 215.299C820.672 214.603 820.216 213.331 820.216 211.483C820.216 209.635 820.84 208.255 822.088 207.343C823.36 206.431 824.98 205.975 826.948 205.975C828.484 205.975 830.368 206.167 832.6 206.551L833.716 206.767L833.644 210.043ZM838.027 224.335V206.335H841.951V224.335H838.027ZM838.027 203.275V199.135H841.951V203.275H838.027ZM850.634 224.335H846.71V206.335H850.598V207.451C852.302 206.443 853.862 205.939 855.278 205.939C857.366 205.939 858.89 206.527 859.85 207.703C862.034 206.527 864.206 205.939 866.366 205.939C868.526 205.939 870.05 206.611 870.938 207.955C871.826 209.275 872.27 211.519 872.27 214.687V224.335H868.382V214.795C868.382 212.851 868.178 211.471 867.77 210.655C867.386 209.839 866.57 209.431 865.322 209.431C864.242 209.431 863.078 209.671 861.83 210.151L861.218 210.403C861.41 210.883 861.506 212.419 861.506 215.011V224.335H857.618V215.083C857.618 212.947 857.426 211.471 857.042 210.655C856.658 209.839 855.818 209.431 854.522 209.431C853.322 209.431 852.206 209.671 851.174 210.151L850.634 210.367V224.335ZM876.875 232.075V206.335H880.763V207.451C882.419 206.443 883.967 205.939 885.407 205.939C887.783 205.939 889.523 206.671 890.627 208.135C891.731 209.575 892.283 212.011 892.283 215.443C892.283 218.851 891.647 221.251 890.375 222.643C889.127 224.035 887.075 224.731 884.219 224.731C883.235 224.731 882.095 224.623 880.799 224.407V232.075H876.875ZM884.723 209.431C883.595 209.431 882.467 209.683 881.339 210.187L880.799 210.439V221.059C881.759 221.251 882.815 221.347 883.967 221.347C885.599 221.347 886.727 220.879 887.351 219.943C887.975 219.007 888.287 217.411 888.287 215.155C888.287 211.339 887.099 209.431 884.723 209.431ZM896.426 224.335V198.847H900.35V224.335H896.426ZM918.132 221.095L919.14 220.987L919.212 223.903C916.476 224.455 914.052 224.731 911.94 224.731C909.276 224.731 907.356 223.999 906.18 222.535C905.028 221.071 904.452 218.731 904.452 215.515C904.452 209.131 907.056 205.939 912.264 205.939C917.304 205.939 919.824 208.687 919.824 214.183L919.572 216.991H908.412C908.436 218.479 908.76 219.571 909.384 220.267C910.008 220.963 911.172 221.311 912.876 221.311C914.58 221.311 916.332 221.239 918.132 221.095ZM915.972 213.967C915.972 212.191 915.684 210.955 915.108 210.259C914.556 209.539 913.608 209.179 912.264 209.179C910.92 209.179 909.936 209.551 909.312 210.295C908.712 211.039 908.4 212.263 908.376 213.967H915.972ZM924.785 227.251H940.193V230.599H924.785V227.251Z" fill="#393939"/>
<rect width="887" height="98" transform="translate(96.5 1540.89)" fill="#EDEDED"/>
<path d="M368.161 1585.39H372.013L374.857 1600.04H375.577L378.997 1585.75H383.029L386.449 1600.04H387.169L389.977 1585.39H393.865L390.049 1603.39H383.821L381.013 1591.04L378.205 1603.39H371.977L368.161 1585.39ZM410.014 1600.15L411.022 1600.04L411.094 1602.96C408.358 1603.51 405.934 1603.78 403.822 1603.78C401.158 1603.78 399.238 1603.05 398.062 1601.59C396.91 1600.12 396.334 1597.78 396.334 1594.57C396.334 1588.18 398.938 1584.99 404.146 1584.99C409.186 1584.99 411.706 1587.74 411.706 1593.24L411.454 1596.04H400.294C400.318 1597.53 400.642 1598.62 401.266 1599.32C401.89 1600.02 403.054 1600.36 404.758 1600.36C406.462 1600.36 408.214 1600.29 410.014 1600.15ZM407.854 1593.02C407.854 1591.24 407.566 1590.01 406.99 1589.31C406.438 1588.59 405.49 1588.23 404.146 1588.23C402.802 1588.23 401.818 1588.6 401.194 1589.35C400.594 1590.09 400.282 1591.32 400.258 1593.02H407.854ZM427.314 1603.39H423.39V1585.39H427.278V1586.5C428.982 1585.5 430.542 1584.99 431.958 1584.99C434.046 1584.99 435.57 1585.58 436.53 1586.76C438.714 1585.58 440.886 1584.99 443.046 1584.99C445.206 1584.99 446.73 1585.66 447.618 1587.01C448.506 1588.33 448.95 1590.57 448.95 1593.74V1603.39H445.062V1593.85C445.062 1591.9 444.858 1590.52 444.45 1589.71C444.066 1588.89 443.25 1588.48 442.002 1588.48C440.922 1588.48 439.758 1588.72 438.51 1589.2L437.898 1589.46C438.09 1589.94 438.186 1591.47 438.186 1594.06V1603.39H434.298V1594.14C434.298 1592 434.106 1590.52 433.722 1589.71C433.338 1588.89 432.498 1588.48 431.202 1588.48C430.002 1588.48 428.886 1588.72 427.854 1589.2L427.314 1589.42V1603.39ZM466.874 1590.93V1599.14C466.898 1599.67 467.03 1600.06 467.27 1600.33C467.534 1600.57 467.93 1600.72 468.458 1600.8L468.35 1603.78C466.286 1603.78 464.69 1603.34 463.562 1602.45C461.642 1603.34 459.71 1603.78 457.766 1603.78C454.19 1603.78 452.402 1601.88 452.402 1598.06C452.402 1596.24 452.882 1594.92 453.842 1594.1C454.826 1593.28 456.326 1592.79 458.342 1592.62L462.986 1592.23V1590.93C462.986 1589.97 462.77 1589.3 462.338 1588.92C461.93 1588.53 461.318 1588.34 460.502 1588.34C458.966 1588.34 457.046 1588.44 454.742 1588.63L453.59 1588.7L453.446 1585.93C456.062 1585.3 458.462 1584.99 460.646 1584.99C462.854 1584.99 464.438 1585.47 465.398 1586.43C466.382 1587.37 466.874 1588.87 466.874 1590.93ZM458.81 1595.4C457.154 1595.54 456.326 1596.44 456.326 1598.1C456.326 1599.75 457.058 1600.58 458.522 1600.58C459.722 1600.58 460.994 1600.39 462.338 1600L462.986 1599.79V1595L458.81 1595.4ZM475.724 1603.39H471.8V1577.9H475.724V1592.62L477.956 1592.41L482.204 1585.39H486.596L481.412 1593.81L486.884 1603.39H482.456L478.064 1595.79L475.724 1596.04V1603.39ZM502.194 1600.15L503.202 1600.04L503.274 1602.96C500.538 1603.51 498.114 1603.78 496.002 1603.78C493.338 1603.78 491.418 1603.05 490.242 1601.59C489.09 1600.12 488.514 1597.78 488.514 1594.57C488.514 1588.18 491.118 1584.99 496.326 1584.99C501.366 1584.99 503.886 1587.74 503.886 1593.24L503.634 1596.04H492.474C492.498 1597.53 492.822 1598.62 493.446 1599.32C494.07 1600.02 495.234 1600.36 496.938 1600.36C498.642 1600.36 500.394 1600.29 502.194 1600.15ZM500.034 1593.02C500.034 1591.24 499.746 1590.01 499.17 1589.31C498.618 1588.59 497.67 1588.23 496.326 1588.23C494.982 1588.23 493.998 1588.6 493.374 1589.35C492.774 1590.09 492.462 1591.32 492.438 1593.02H500.034ZM525.253 1588.74H520.285V1596.66C520.285 1598.12 520.393 1599.09 520.609 1599.57C520.825 1600.05 521.377 1600.29 522.265 1600.29L525.217 1600.18L525.397 1603.32C523.789 1603.63 522.565 1603.78 521.725 1603.78C519.685 1603.78 518.281 1603.32 517.513 1602.38C516.769 1601.44 516.397 1599.68 516.397 1597.09V1588.74H514.093V1585.39H516.397V1580.17H520.285V1585.39H525.253V1588.74ZM541.288 1600.15L542.296 1600.04L542.368 1602.96C539.632 1603.51 537.208 1603.78 535.096 1603.78C532.432 1603.78 530.512 1603.05 529.336 1601.59C528.184 1600.12 527.608 1597.78 527.608 1594.57C527.608 1588.18 530.212 1584.99 535.42 1584.99C540.46 1584.99 542.98 1587.74 542.98 1593.24L542.728 1596.04H531.568C531.592 1597.53 531.916 1598.62 532.54 1599.32C533.164 1600.02 534.328 1600.36 536.032 1600.36C537.736 1600.36 539.488 1600.29 541.288 1600.15ZM539.128 1593.02C539.128 1591.24 538.84 1590.01 538.264 1589.31C537.712 1588.59 536.764 1588.23 535.42 1588.23C534.076 1588.23 533.092 1588.6 532.468 1589.35C531.868 1590.09 531.556 1591.32 531.532 1593.02H539.128ZM553.485 1584.99C554.757 1584.99 556.257 1585.16 557.985 1585.5L558.885 1585.68L558.741 1588.77C556.845 1588.58 555.441 1588.48 554.529 1588.48C552.705 1588.48 551.481 1588.89 550.857 1589.71C550.233 1590.52 549.921 1592.06 549.921 1594.32C549.921 1596.57 550.221 1598.13 550.821 1599C551.421 1599.86 552.669 1600.29 554.565 1600.29L558.777 1600L558.885 1603.14C556.461 1603.57 554.637 1603.78 553.413 1603.78C550.677 1603.78 548.745 1603.05 547.617 1601.59C546.513 1600.1 545.961 1597.68 545.961 1594.32C545.961 1590.96 546.549 1588.57 547.725 1587.15C548.901 1585.71 550.821 1584.99 553.485 1584.99ZM566.603 1603.39H562.679V1577.9H566.603V1586.32C568.379 1585.44 570.023 1584.99 571.535 1584.99C573.935 1584.99 575.567 1585.68 576.431 1587.04C577.319 1588.39 577.763 1590.62 577.763 1593.74V1603.39H573.839V1593.85C573.839 1591.9 573.635 1590.52 573.227 1589.71C572.819 1588.89 571.955 1588.48 570.635 1588.48C569.483 1588.48 568.331 1588.68 567.179 1589.06L566.603 1589.28V1603.39ZM602.733 1589.1C599.901 1588.71 597.849 1588.52 596.577 1588.52C595.305 1588.52 594.417 1588.68 593.913 1588.99C593.433 1589.28 593.193 1589.74 593.193 1590.39C593.193 1591.04 593.457 1591.5 593.985 1591.76C594.537 1592.02 595.809 1592.34 597.801 1592.7C599.817 1593.03 601.245 1593.57 602.085 1594.32C602.925 1595.06 603.345 1596.38 603.345 1598.28C603.345 1600.17 602.733 1601.56 601.509 1602.45C600.309 1603.34 598.545 1603.78 596.217 1603.78C594.753 1603.78 592.905 1603.58 590.673 1603.17L589.557 1602.99L589.701 1599.72C592.581 1600.1 594.657 1600.29 595.929 1600.29C597.201 1600.29 598.101 1600.14 598.629 1599.82C599.181 1599.51 599.457 1599 599.457 1598.28C599.457 1597.56 599.193 1597.06 598.665 1596.8C598.161 1596.51 596.925 1596.21 594.957 1595.9C593.013 1595.56 591.585 1595.05 590.673 1594.35C589.761 1593.66 589.305 1592.38 589.305 1590.54C589.305 1588.69 589.929 1587.31 591.177 1586.4C592.449 1585.48 594.069 1585.03 596.037 1585.03C597.573 1585.03 599.457 1585.22 601.689 1585.6L602.805 1585.82L602.733 1589.1ZM607.116 1603.39V1585.39H611.04V1603.39H607.116ZM607.116 1582.33V1578.19H611.04V1582.33H607.116ZM619.724 1603.39H615.8V1585.39H619.688V1586.5C621.392 1585.5 622.952 1584.99 624.368 1584.99C626.456 1584.99 627.98 1585.58 628.94 1586.76C631.124 1585.58 633.296 1584.99 635.456 1584.99C637.616 1584.99 639.14 1585.66 640.028 1587.01C640.916 1588.33 641.36 1590.57 641.36 1593.74V1603.39H637.472V1593.85C637.472 1591.9 637.268 1590.52 636.86 1589.71C636.476 1588.89 635.66 1588.48 634.412 1588.48C633.332 1588.48 632.168 1588.72 630.92 1589.2L630.308 1589.46C630.5 1589.94 630.596 1591.47 630.596 1594.06V1603.39H626.708V1594.14C626.708 1592 626.516 1590.52 626.132 1589.71C625.748 1588.89 624.908 1588.48 623.612 1588.48C622.412 1588.48 621.296 1588.72 620.264 1589.2L619.724 1589.42V1603.39ZM645.964 1611.13V1585.39H649.852V1586.5C651.508 1585.5 653.056 1584.99 654.496 1584.99C656.872 1584.99 658.612 1585.72 659.716 1587.19C660.82 1588.63 661.372 1591.06 661.372 1594.5C661.372 1597.9 660.736 1600.3 659.464 1601.7C658.216 1603.09 656.164 1603.78 653.308 1603.78C652.324 1603.78 651.184 1603.68 649.888 1603.46V1611.13H645.964ZM653.812 1588.48C652.684 1588.48 651.556 1588.74 650.428 1589.24L649.888 1589.49V1600.11C650.848 1600.3 651.904 1600.4 653.056 1600.4C654.688 1600.4 655.816 1599.93 656.44 1599C657.064 1598.06 657.376 1596.46 657.376 1594.21C657.376 1590.39 656.188 1588.48 653.812 1588.48ZM665.516 1603.39V1577.9H669.44V1603.39H665.516ZM687.221 1600.15L688.229 1600.04L688.301 1602.96C685.565 1603.51 683.141 1603.78 681.029 1603.78C678.365 1603.78 676.445 1603.05 675.269 1601.59C674.117 1600.12 673.541 1597.78 673.541 1594.57C673.541 1588.18 676.145 1584.99 681.353 1584.99C686.393 1584.99 688.913 1587.74 688.913 1593.24L688.661 1596.04H677.501C677.525 1597.53 677.849 1598.62 678.473 1599.32C679.097 1600.02 680.261 1600.36 681.965 1600.36C683.669 1600.36 685.421 1600.29 687.221 1600.15ZM685.061 1593.02C685.061 1591.24 684.773 1590.01 684.197 1589.31C683.645 1588.59 682.697 1588.23 681.353 1588.23C680.009 1588.23 679.025 1588.6 678.401 1589.35C677.801 1590.09 677.489 1591.32 677.465 1593.02H685.061ZM693.875 1606.3H709.283V1609.65H693.875V1606.3Z" fill="#393939"/>
</g>
<rect x="97" y="62.5" width="886" height="1575.89" rx="7.5" stroke="black"/>
<rect x="100.5" y="1731" width="403.5" height="123" stroke="#606060" stroke-width="8"/>
<path d="M220.989 1800.23V1813H213.261V1774.92H228.045C237.005 1774.92 241.485 1779.1 241.485 1787.46C241.485 1792.43 239.619 1796.09 235.885 1798.44L241.317 1813H232.861L228.437 1800.23H220.989ZM228.157 1793.62C229.987 1793.62 231.349 1793.06 232.245 1791.94C233.141 1790.82 233.589 1789.35 233.589 1787.52C233.589 1785.69 233.104 1784.23 232.133 1783.15C231.2 1782.07 229.837 1781.53 228.045 1781.53H220.989V1793.62H228.157ZM253.038 1802.19C253.076 1803.91 253.524 1805.16 254.382 1805.94C255.278 1806.69 256.548 1807.06 258.19 1807.06C261.662 1807.06 264.761 1806.95 267.486 1806.73L269.054 1806.56L269.166 1812.1C264.873 1813.15 260.99 1813.67 257.518 1813.67C253.3 1813.67 250.238 1812.55 248.334 1810.31C246.43 1808.07 245.478 1804.43 245.478 1799.39C245.478 1789.35 249.604 1784.33 257.854 1784.33C265.993 1784.33 270.062 1788.55 270.062 1796.98L269.502 1802.19H253.038ZM262.67 1796.48C262.67 1794.24 262.316 1792.69 261.606 1791.83C260.897 1790.94 259.646 1790.49 257.854 1790.49C256.1 1790.49 254.849 1790.95 254.102 1791.89C253.393 1792.78 253.02 1794.31 252.982 1796.48H262.67ZM284.273 1791.38V1813H276.769V1791.38H273.745V1785H276.769V1783.77C276.769 1779.74 277.366 1776.95 278.561 1775.42C279.756 1773.89 281.884 1773.13 284.945 1773.13C286.289 1773.13 288.025 1773.31 290.153 1773.69L291.329 1773.86L291.217 1779.96C289.574 1779.89 288.193 1779.85 287.073 1779.85C285.953 1779.85 285.206 1780.15 284.833 1780.74C284.46 1781.34 284.273 1782.37 284.273 1783.82V1785H291.049V1791.38H284.273ZM316.889 1793.74V1805.38C316.963 1806.28 317.113 1806.91 317.337 1807.29C317.561 1807.62 318.027 1807.87 318.737 1808.02L318.513 1813.67C316.609 1813.67 315.078 1813.54 313.921 1813.28C312.801 1813.02 311.662 1812.5 310.505 1811.71C307.817 1813.02 305.073 1813.67 302.273 1813.67C296.486 1813.67 293.593 1810.61 293.593 1804.49C293.593 1801.5 294.395 1799.39 296.001 1798.16C297.606 1796.89 300.07 1796.14 303.393 1795.92L309.385 1795.47V1793.74C309.385 1792.58 309.123 1791.79 308.601 1791.38C308.078 1790.94 307.238 1790.71 306.081 1790.71L295.553 1791.16L295.329 1785.95C299.323 1784.87 303.113 1784.33 306.697 1784.33C310.318 1784.33 312.913 1785.07 314.481 1786.57C316.086 1788.06 316.889 1790.45 316.889 1793.74ZM304.289 1801.13C302.198 1801.31 301.153 1802.43 301.153 1804.49C301.153 1806.54 302.067 1807.57 303.897 1807.57C305.315 1807.57 306.865 1807.34 308.545 1806.9L309.385 1806.67V1800.68L304.289 1801.13ZM322.866 1791.72V1785H343.642V1791.72L331.882 1806.28H343.642V1813H322.866V1806.28L334.626 1791.72H322.866ZM355.632 1802.19C355.669 1803.91 356.117 1805.16 356.976 1805.94C357.872 1806.69 359.141 1807.06 360.784 1807.06C364.256 1807.06 367.355 1806.95 370.08 1806.73L371.648 1806.56L371.76 1812.1C367.467 1813.15 363.584 1813.67 360.112 1813.67C355.893 1813.67 352.832 1812.55 350.928 1810.31C349.024 1808.07 348.072 1804.43 348.072 1799.39C348.072 1789.35 352.197 1784.33 360.448 1784.33C368.587 1784.33 372.656 1788.55 372.656 1796.98L372.096 1802.19H355.632ZM365.264 1796.48C365.264 1794.24 364.909 1792.69 364.2 1791.83C363.491 1790.94 362.24 1790.49 360.448 1790.49C358.693 1790.49 357.443 1790.95 356.696 1791.89C355.987 1792.78 355.613 1794.31 355.576 1796.48H365.264ZM378.019 1813V1785H385.467V1787.97C388.603 1786.1 391.59 1784.89 394.427 1784.33V1791.89C391.403 1792.52 388.808 1793.18 386.643 1793.85L385.523 1794.24V1813H378.019Z" fill="#606060"/>
<rect width="411.5" height="131" transform="translate(572 1727)" fill="#606060"/>
<path d="M687.577 1812.38C683.62 1813.24 680.054 1813.67 676.881 1813.67C673.708 1813.67 671.169 1813.28 669.265 1812.5C667.361 1811.71 665.868 1810.46 664.785 1808.74C663.702 1807.03 662.956 1805.01 662.545 1802.7C662.134 1800.38 661.929 1797.47 661.929 1793.96C661.929 1786.61 662.956 1781.49 665.009 1778.62C667.1 1775.7 670.926 1774.25 676.489 1774.25C679.7 1774.25 683.414 1774.75 687.633 1775.76L687.409 1781.92C683.713 1781.36 680.633 1781.08 678.169 1781.08C675.742 1781.08 674.006 1781.42 672.961 1782.09C671.916 1782.72 671.132 1783.95 670.609 1785.78C670.124 1787.61 669.881 1790.73 669.881 1795.14C669.881 1799.54 670.385 1802.6 671.393 1804.32C672.438 1806 674.492 1806.84 677.553 1806.84C680.652 1806.84 683.937 1806.58 687.409 1806.06L687.577 1812.38ZM694.25 1788.19C696.228 1785.62 699.532 1784.33 704.162 1784.33C708.791 1784.33 712.095 1785.62 714.074 1788.19C716.052 1790.73 717.042 1794.31 717.042 1798.94C717.042 1808.76 712.748 1813.67 704.162 1813.67C695.575 1813.67 691.282 1808.76 691.282 1798.94C691.282 1794.31 692.271 1790.73 694.25 1788.19ZM700.018 1805.27C700.802 1806.62 702.183 1807.29 704.162 1807.29C706.14 1807.29 707.503 1806.62 708.25 1805.27C709.034 1803.93 709.426 1801.82 709.426 1798.94C709.426 1796.07 709.034 1793.98 708.25 1792.67C707.503 1791.37 706.14 1790.71 704.162 1790.71C702.183 1790.71 700.802 1791.37 700.018 1792.67C699.271 1793.98 698.898 1796.07 698.898 1798.94C698.898 1801.82 699.271 1803.93 700.018 1805.27ZM730.046 1813H722.542V1785H729.99V1786.57C732.529 1785.07 734.862 1784.33 736.99 1784.33C740.724 1784.33 743.3 1785.43 744.718 1787.63C746.137 1789.83 746.846 1793.23 746.846 1797.82V1813H739.342V1798.05C739.342 1795.66 739.062 1793.9 738.502 1792.78C737.942 1791.63 736.822 1791.05 735.142 1791.05C733.612 1791.05 732.137 1791.31 730.718 1791.83L730.046 1792.06V1813ZM769.007 1791.38H762.119V1802.86C762.119 1803.98 762.138 1804.79 762.175 1805.27C762.25 1805.72 762.455 1806.11 762.791 1806.45C763.165 1806.78 763.725 1806.95 764.471 1806.95L768.727 1806.84L769.063 1812.83C766.562 1813.39 764.658 1813.67 763.351 1813.67C759.991 1813.67 757.695 1812.93 756.463 1811.43C755.231 1809.9 754.615 1807.1 754.615 1803.03V1791.38H751.311V1785H754.615V1777.22H762.119V1785H769.007V1791.38ZM773.894 1813V1785H781.398V1813H773.894ZM773.894 1781.42V1773.8H781.398V1781.42H773.894ZM795.835 1813H788.331V1785H795.779V1786.57C798.318 1785.07 800.651 1784.33 802.779 1784.33C806.513 1784.33 809.089 1785.43 810.507 1787.63C811.926 1789.83 812.635 1793.23 812.635 1797.82V1813H805.131V1798.05C805.131 1795.66 804.851 1793.9 804.291 1792.78C803.731 1791.63 802.611 1791.05 800.931 1791.05C799.401 1791.05 797.926 1791.31 796.507 1791.83L795.835 1792.06V1813ZM835.805 1785H843.309V1813H835.861V1811.43C833.173 1812.93 830.839 1813.67 828.861 1813.67C824.978 1813.67 822.365 1812.61 821.021 1810.48C819.677 1808.31 819.005 1804.71 819.005 1799.67V1785H826.509V1799.78C826.509 1802.55 826.733 1804.43 827.181 1805.44C827.629 1806.45 828.711 1806.95 830.429 1806.95C832.071 1806.95 833.621 1806.69 835.077 1806.17L835.805 1805.94V1785ZM871.686 1793.74V1805.38C871.76 1806.28 871.91 1806.91 872.134 1807.29C872.358 1807.62 872.824 1807.87 873.534 1808.02L873.31 1813.67C871.406 1813.67 869.875 1813.54 868.718 1813.28C867.598 1813.02 866.459 1812.5 865.302 1811.71C862.614 1813.02 859.87 1813.67 857.07 1813.67C851.283 1813.67 848.39 1810.61 848.39 1804.49C848.39 1801.5 849.192 1799.39 850.798 1798.16C852.403 1796.89 854.867 1796.14 858.19 1795.92L864.182 1795.47V1793.74C864.182 1792.58 863.92 1791.79 863.398 1791.38C862.875 1790.94 862.035 1790.71 860.878 1790.71L850.35 1791.16L850.126 1785.95C854.12 1784.87 857.91 1784.33 861.494 1784.33C865.115 1784.33 867.71 1785.07 869.278 1786.57C870.883 1788.06 871.686 1790.45 871.686 1793.74ZM859.086 1801.13C856.995 1801.31 855.95 1802.43 855.95 1804.49C855.95 1806.54 856.864 1807.57 858.694 1807.57C860.112 1807.57 861.662 1807.34 863.342 1806.9L864.182 1806.67V1800.68L859.086 1801.13ZM878.839 1813V1785H886.287V1787.97C889.423 1786.1 892.41 1784.89 895.247 1784.33V1791.89C892.223 1792.52 889.629 1793.18 887.463 1793.85L886.343 1794.24V1813H878.839Z" fill="white"/>
</g>
<defs>
<linearGradient id="paint0_linear_3_315" x1="0" y1="0" x2="1080" y2="1920" gradientUnits="userSpaceOnUse">
<stop offset="0.490385" stop-color="white"/>
<stop offset="1" stop-color="#999999"/>
</linearGradient>
<clipPath id="clip0_3_315">
<rect width="1080" height="1920" fill="white"/>
</clipPath>
<clipPath id="clip1_3_315">
<rect x="96.5" y="62" width="887" height="1576.89" rx="8" fill="white"/>
</clipPath>
</defs>
</svg>
