<svg width="420" height="161" viewBox="0 0 420 161" fill="none" xmlns="http://www.w3.org/2000/svg">
<rect width="420" height="161" rx="24" fill="#D9D9D9"/>
<path d="M72.5455 110V51.8182H92.2045C96.75 51.8182 100.481 52.5947 103.398 54.1477C106.314 55.6818 108.473 57.7936 109.875 60.483C111.277 63.1723 111.977 66.2311 111.977 69.6591C111.977 73.0871 111.277 76.1269 109.875 78.7784C108.473 81.4299 106.324 83.5133 103.426 85.0284C100.528 86.5246 96.8258 87.2727 92.3182 87.2727H76.4091V80.9091H92.0909C95.197 80.9091 97.697 80.4545 99.5909 79.5455C101.504 78.6364 102.886 77.3485 103.739 75.6818C104.61 73.9962 105.045 71.9886 105.045 69.6591C105.045 67.3295 104.61 65.2936 103.739 63.5511C102.867 61.8087 101.475 60.464 99.5625 59.517C97.6496 58.5511 95.1212 58.0682 91.9773 58.0682H79.5909V110H72.5455ZM99.9318 83.8636L114.25 110H106.068L91.9773 83.8636H99.9318ZM140.635 110.909C136.43 110.909 132.804 109.981 129.754 108.125C126.724 106.25 124.385 103.636 122.737 100.284C121.108 96.9129 120.294 92.9924 120.294 88.5227C120.294 84.053 121.108 80.1136 122.737 76.7045C124.385 73.2765 126.677 70.6061 129.612 68.6932C132.567 66.7614 136.014 65.7955 139.953 65.7955C142.226 65.7955 144.47 66.1742 146.686 66.9318C148.902 67.6894 150.919 68.9205 152.737 70.625C154.555 72.3106 156.004 74.5455 157.084 77.3295C158.163 80.1136 158.703 83.5417 158.703 87.6136V90.4545H125.067V84.6591H151.885C151.885 82.197 151.393 80 150.408 78.0682C149.442 76.1364 148.059 74.6117 146.26 73.4943C144.48 72.3769 142.377 71.8182 139.953 71.8182C137.283 71.8182 134.972 72.4811 133.021 73.8068C131.089 75.1136 129.603 76.8182 128.561 78.9205C127.519 81.0227 126.999 83.2765 126.999 85.6818V89.5455C126.999 92.8409 127.567 95.6345 128.703 97.9261C129.858 100.199 131.459 101.932 133.504 103.125C135.55 104.299 137.927 104.886 140.635 104.886C142.396 104.886 143.987 104.64 145.408 104.148C146.847 103.636 148.088 102.879 149.129 101.875C150.171 100.852 150.976 99.5833 151.544 98.0682L158.021 99.8864C157.339 102.083 156.194 104.015 154.584 105.682C152.974 107.33 150.985 108.617 148.618 109.545C146.25 110.455 143.589 110.909 140.635 110.909ZM188.334 66.3636V72.0455H164.811V66.3636H188.334ZM171.857 110V60.3409C171.857 57.8409 172.444 55.7576 173.618 54.0909C174.792 52.4242 176.317 51.1742 178.192 50.3409C180.067 49.5076 182.046 49.0909 184.129 49.0909C185.777 49.0909 187.122 49.2235 188.163 49.4886C189.205 49.7538 189.982 50 190.493 50.2273L188.561 56.0227C188.22 55.9091 187.747 55.767 187.141 55.5966C186.554 55.4261 185.777 55.3409 184.811 55.3409C182.595 55.3409 180.995 55.8996 180.01 57.017C179.044 58.1345 178.561 59.7727 178.561 61.9318V110H171.857ZM209.321 111.023C206.556 111.023 204.046 110.502 201.793 109.46C199.539 108.4 197.749 106.875 196.423 104.886C195.098 102.879 194.435 100.455 194.435 97.6136C194.435 95.1136 194.927 93.0871 195.912 91.5341C196.897 89.9621 198.213 88.7311 199.861 87.8409C201.509 86.9508 203.327 86.2879 205.315 85.8523C207.323 85.3977 209.34 85.0379 211.366 84.7727C214.018 84.4318 216.168 84.1761 217.815 84.0057C219.482 83.8163 220.694 83.5038 221.452 83.0682C222.228 82.6326 222.616 81.875 222.616 80.7955V80.5682C222.616 77.7652 221.849 75.5871 220.315 74.0341C218.8 72.4811 216.499 71.7045 213.412 71.7045C210.211 71.7045 207.702 72.4053 205.884 73.8068C204.065 75.2083 202.787 76.7045 202.048 78.2955L195.685 76.0227C196.821 73.3712 198.336 71.3068 200.23 69.8295C202.143 68.3333 204.226 67.2917 206.48 66.7045C208.753 66.0985 210.988 65.7955 213.185 65.7955C214.586 65.7955 216.196 65.9659 218.014 66.3068C219.851 66.6288 221.622 67.3011 223.327 68.3239C225.05 69.3466 226.48 70.8902 227.616 72.9545C228.753 75.0189 229.321 77.7841 229.321 81.25V110H222.616V104.091H222.276C221.821 105.038 221.063 106.051 220.003 107.131C218.942 108.21 217.531 109.129 215.77 109.886C214.009 110.644 211.859 111.023 209.321 111.023ZM210.344 105C212.995 105 215.23 104.479 217.048 103.438C218.885 102.396 220.268 101.051 221.196 99.4034C222.143 97.7557 222.616 96.0227 222.616 94.2045V88.0682C222.332 88.4091 221.707 88.7216 220.741 89.0057C219.795 89.2708 218.696 89.5076 217.446 89.7159C216.215 89.9053 215.012 90.0758 213.838 90.2273C212.683 90.3598 211.745 90.4735 211.026 90.5682C209.283 90.7955 207.654 91.1648 206.139 91.6761C204.643 92.1686 203.431 92.9167 202.503 93.9205C201.594 94.9053 201.139 96.25 201.139 97.9545C201.139 100.284 202.001 102.045 203.724 103.239C205.467 104.413 207.673 105 210.344 105ZM240.308 110V104.886L265.081 73.0682V72.6136H241.104V66.3636H273.717V71.7045L249.626 103.295V103.75H274.513V110H240.308ZM301.885 110.909C297.68 110.909 294.054 109.981 291.004 108.125C287.974 106.25 285.635 103.636 283.987 100.284C282.358 96.9129 281.544 92.9924 281.544 88.5227C281.544 84.053 282.358 80.1136 283.987 76.7045C285.635 73.2765 287.927 70.6061 290.862 68.6932C293.817 66.7614 297.264 65.7955 301.203 65.7955C303.476 65.7955 305.72 66.1742 307.936 66.9318C310.152 67.6894 312.169 68.9205 313.987 70.625C315.805 72.3106 317.254 74.5455 318.334 77.3295C319.413 80.1136 319.953 83.5417 319.953 87.6136V90.4545H286.317V84.6591H313.135C313.135 82.197 312.643 80 311.658 78.0682C310.692 76.1364 309.309 74.6117 307.51 73.4943C305.73 72.3769 303.627 71.8182 301.203 71.8182C298.533 71.8182 296.222 72.4811 294.271 73.8068C292.339 75.1136 290.853 76.8182 289.811 78.9205C288.769 81.0227 288.249 83.2765 288.249 85.6818V89.5455C288.249 92.8409 288.817 95.6345 289.953 97.9261C291.108 100.199 292.709 101.932 294.754 103.125C296.8 104.299 299.177 104.886 301.885 104.886C303.646 104.886 305.237 104.64 306.658 104.148C308.097 103.636 309.338 102.879 310.379 101.875C311.421 100.852 312.226 99.5833 312.794 98.0682L319.271 99.8864C318.589 102.083 317.444 104.015 315.834 105.682C314.224 107.33 312.235 108.617 309.868 109.545C307.5 110.455 304.839 110.909 301.885 110.909ZM330.152 110V66.3636H336.629V72.9545H337.084C337.879 70.7955 339.319 69.0436 341.402 67.6989C343.485 66.3542 345.834 65.6818 348.447 65.6818C348.94 65.6818 349.555 65.6913 350.294 65.7102C351.033 65.7292 351.591 65.7576 351.97 65.7955V72.6136C351.743 72.5568 351.222 72.4716 350.408 72.358C349.612 72.2254 348.769 72.1591 347.879 72.1591C345.758 72.1591 343.864 72.6042 342.197 73.4943C340.55 74.3655 339.243 75.5777 338.277 77.1307C337.33 78.6648 336.857 80.4167 336.857 82.3864V110H330.152Z" fill="black"/>
</svg>
