<svg width="956" height="131" viewBox="0 0 956 131" fill="none" xmlns="http://www.w3.org/2000/svg">
<rect width="956" height="131" fill="#606060"/>
<path d="M405.828 86V47.92H430.468V54.64H413.556V63.544H427.108V70.152H413.556V79.28H430.468V86H405.828ZM443.667 86H436.163V58H443.611V59.568C446.15 58.0747 448.483 57.328 450.611 57.328C454.345 57.328 456.921 58.4293 458.339 60.632C459.758 62.8347 460.467 66.232 460.467 70.824V86H452.963V71.048C452.963 68.6587 452.683 66.904 452.123 65.784C451.563 64.6267 450.443 64.048 448.763 64.048C447.233 64.048 445.758 64.3093 444.339 64.832L443.667 65.056V86ZM482.629 64.384H475.741V75.864C475.741 76.984 475.759 77.7867 475.797 78.272C475.871 78.72 476.077 79.112 476.413 79.448C476.786 79.784 477.346 79.952 478.093 79.952L482.349 79.84L482.685 85.832C480.183 86.392 478.279 86.672 476.973 86.672C473.613 86.672 471.317 85.9253 470.085 84.432C468.853 82.9013 468.237 80.1013 468.237 76.032V64.384H464.933V58H468.237V50.216H475.741V58H482.629V64.384ZM487.515 86V58H494.963V60.968C498.099 59.1013 501.086 57.888 503.923 57.328V64.888C500.899 65.5227 498.304 66.176 496.139 66.848L495.019 67.24V86H487.515ZM529.799 66.736V78.384C529.874 79.28 530.023 79.9147 530.247 80.288C530.471 80.624 530.938 80.8667 531.647 81.016L531.423 86.672C529.519 86.672 527.988 86.5413 526.831 86.28C525.711 86.0187 524.572 85.496 523.415 84.712C520.727 86.0187 517.983 86.672 515.183 86.672C509.396 86.672 506.503 83.6107 506.503 77.488C506.503 74.5013 507.306 72.392 508.911 71.16C510.516 69.8907 512.98 69.144 516.303 68.92L522.295 68.472V66.736C522.295 65.5787 522.034 64.7947 521.511 64.384C520.988 63.936 520.148 63.712 518.991 63.712L508.463 64.16L508.239 58.952C512.234 57.8693 516.023 57.328 519.607 57.328C523.228 57.328 525.823 58.0747 527.391 59.568C528.996 61.0613 529.799 63.4507 529.799 66.736ZM517.199 74.128C515.108 74.3147 514.063 75.4347 514.063 77.488C514.063 79.5413 514.978 80.568 516.807 80.568C518.226 80.568 519.775 80.344 521.455 79.896L522.295 79.672V73.68L517.199 74.128ZM536.952 86V58H544.4V60.968C547.536 59.1013 550.523 57.888 553.36 57.328V64.888C550.336 65.5227 547.742 66.176 545.576 66.848L544.456 67.24V86H536.952Z" fill="white"/>
</svg>
