<svg width="315" height="34" viewBox="0 0 315 34" fill="none" xmlns="http://www.w3.org/2000/svg">
<path d="M-5.85616e-05 25.848V0.936021H15.1559V3.38402H2.77194V11.988H12.9959V14.4H2.77194V23.4H15.1559V25.848H-5.85616e-05ZM25.0824 9.90002C22.4664 9.90002 21.1584 10.812 21.1584 12.636C21.1584 13.476 21.4584 14.076 22.0584 14.436C22.6584 14.772 24.0264 15.132 26.1624 15.516C28.2984 15.876 29.8104 16.392 30.6984 17.064C31.5864 17.736 32.0304 18.996 32.0304 20.844C32.0304 22.692 31.4304 24.048 30.2304 24.912C29.0544 25.776 27.3264 26.208 25.0464 26.208C23.5584 26.208 21.8064 26.04 19.7904 25.704L18.7104 25.524L18.8544 23.184C21.5904 23.592 23.6544 23.796 25.0464 23.796C26.4384 23.796 27.4944 23.58 28.2144 23.148C28.9584 22.692 29.3304 21.948 29.3304 20.916C29.3304 19.86 29.0184 19.152 28.3944 18.792C27.7704 18.408 26.4024 18.048 24.2904 17.712C22.1784 17.376 20.6784 16.884 19.7904 16.236C18.9024 15.588 18.4584 14.388 18.4584 12.636C18.4584 10.884 19.0704 9.58802 20.2944 8.74802C21.5424 7.90802 23.0904 7.48802 24.9384 7.48802C26.4024 7.48802 28.2384 7.65602 30.4464 7.99202L31.4544 8.17202L31.3824 10.476C28.7184 10.092 26.6184 9.90002 25.0824 9.90002ZM42.1408 26.208C39.7168 26.208 37.9768 25.5 36.9208 24.084C35.8888 22.668 35.3728 20.268 35.3728 16.884C35.3728 13.5 35.9968 11.088 37.2448 9.64802C38.4928 8.20802 40.7008 7.48802 43.8688 7.48802L49.8808 7.84802V33.84H47.2168V25.02C45.5368 25.812 43.8448 26.208 42.1408 26.208ZM43.9048 9.82802C41.6488 9.82802 40.1128 10.392 39.2968 11.52C38.5048 12.648 38.1088 14.448 38.1088 16.92C38.1088 19.368 38.4328 21.132 39.0808 22.212C39.7528 23.268 40.8688 23.796 42.4288 23.796C43.8208 23.796 45.2008 23.532 46.5688 23.004L47.2168 22.752V10.044C45.7288 9.90002 44.6248 9.82802 43.9048 9.82802ZM66.346 7.84802H69.046V25.848H66.346V24.588C64.546 25.668 62.77 26.208 61.018 26.208C58.57 26.208 56.938 25.572 56.122 24.3C55.33 23.028 54.934 20.676 54.934 17.244V7.84802H57.634V17.208C57.634 19.824 57.862 21.576 58.318 22.464C58.774 23.352 59.806 23.796 61.414 23.796C62.206 23.796 63.01 23.688 63.826 23.472C64.642 23.232 65.266 23.004 65.698 22.788L66.346 22.464V7.84802ZM86.479 23.616L87.523 23.508L87.595 25.632C84.859 26.016 82.519 26.208 80.575 26.208C77.983 26.208 76.147 25.464 75.067 23.976C73.987 22.464 73.447 20.124 73.447 16.956C73.447 10.644 75.955 7.48802 80.971 7.48802C83.395 7.48802 85.207 8.17202 86.407 9.54002C87.607 10.884 88.207 13.008 88.207 15.912L88.063 17.964H76.183C76.183 19.956 76.543 21.432 77.263 22.392C77.983 23.352 79.231 23.832 81.007 23.832C82.807 23.832 84.631 23.76 86.479 23.616ZM85.507 15.804C85.507 13.596 85.147 12.036 84.427 11.124C83.731 10.212 82.579 9.75602 80.971 9.75602C79.387 9.75602 78.187 10.236 77.371 11.196C76.579 12.156 76.171 13.692 76.147 15.804H85.507ZM99.1468 7.48802C99.9388 7.48802 101.283 7.63202 103.179 7.92002L104.043 8.02802L103.935 10.224C102.015 10.008 100.599 9.90002 99.6868 9.90002C97.6468 9.90002 96.2548 10.392 95.5108 11.376C94.7908 12.336 94.4308 14.136 94.4308 16.776C94.4308 19.392 94.7668 21.216 95.4388 22.248C96.1348 23.28 97.5628 23.796 99.7228 23.796L103.971 23.472L104.079 25.704C101.847 26.04 100.179 26.208 99.0748 26.208C96.2668 26.208 94.3228 25.488 93.2428 24.048C92.1868 22.608 91.6588 20.184 91.6588 16.776C91.6588 13.344 92.2348 10.944 93.3868 9.57602C94.5388 8.18402 96.4588 7.48802 99.1468 7.48802ZM108.094 25.848V7.84802H110.794V25.848H108.094ZM108.094 3.78002V0.648021H110.794V3.78002H108.094ZM126.58 25.848H123.88V7.84802H126.544V9.10802C128.344 8.02802 130.096 7.48802 131.8 7.48802C134.032 7.48802 135.592 8.10002 136.48 9.32402C137.272 8.84402 138.292 8.42402 139.54 8.06402C140.812 7.68002 141.928 7.48802 142.888 7.48802C145.288 7.48802 146.896 8.13602 147.712 9.43202C148.552 10.704 148.972 13.008 148.972 16.344V25.848H146.272V16.416C146.272 13.92 146.032 12.216 145.552 11.304C145.072 10.368 144.052 9.90002 142.492 9.90002C141.7 9.90002 140.884 10.02 140.044 10.26C139.204 10.476 138.556 10.692 138.1 10.908L137.416 11.232C137.728 12.024 137.884 13.776 137.884 16.488V25.848H135.184V16.56C135.184 13.968 134.944 12.216 134.464 11.304C134.008 10.368 132.988 9.90002 131.404 9.90002C130.636 9.90002 129.844 10.02 129.028 10.26C128.236 10.476 127.624 10.692 127.192 10.908L126.58 11.232V25.848ZM153.973 25.848V7.84802H156.673V25.848H153.973ZM153.973 3.78002V0.648021H156.673V3.78002H153.973ZM164.548 25.848H161.848V7.84802H164.512V9.10802C166.456 8.02802 168.316 7.48802 170.092 7.48802C172.492 7.48802 174.1 8.13602 174.916 9.43202C175.756 10.728 176.176 13.032 176.176 16.344V25.848H173.512V16.416C173.512 13.92 173.26 12.216 172.756 11.304C172.276 10.368 171.232 9.90002 169.624 9.90002C168.856 9.90002 168.04 10.02 167.176 10.26C166.336 10.476 165.688 10.692 165.232 10.908L164.548 11.232V25.848ZM183.884 25.848H181.184V2.0504e-05H183.884V8.85602C185.804 7.94402 187.652 7.48802 189.428 7.48802C191.828 7.48802 193.436 8.13602 194.252 9.43202C195.092 10.728 195.512 13.032 195.512 16.344V25.848H192.812V16.416C192.812 13.92 192.56 12.216 192.056 11.304C191.576 10.368 190.544 9.90002 188.96 9.90002C187.448 9.90002 185.984 10.176 184.568 10.728L183.884 10.98V25.848ZM213.228 13.284V22.5C213.3 23.388 213.996 23.916 215.316 24.084L215.208 26.208C213.312 26.208 211.884 25.728 210.924 24.768C208.764 25.728 206.604 26.208 204.444 26.208C202.788 26.208 201.528 25.74 200.664 24.804C199.8 23.868 199.368 22.524 199.368 20.772C199.368 19.02 199.812 17.736 200.7 16.92C201.588 16.08 202.98 15.564 204.876 15.372L210.528 14.832V13.284C210.528 12.06 210.264 11.184 209.736 10.656C209.208 10.128 208.488 9.86402 207.576 9.86402C205.656 9.86402 203.664 9.98402 201.6 10.224L200.484 10.332L200.376 8.28002C203.016 7.75202 205.356 7.48802 207.396 7.48802C209.436 7.48802 210.912 7.95602 211.824 8.89202C212.76 9.82802 213.228 11.292 213.228 13.284ZM202.14 20.628C202.14 22.836 203.052 23.94 204.876 23.94C206.508 23.94 208.116 23.664 209.7 23.112L210.528 22.824V16.884L205.2 17.388C204.12 17.484 203.34 17.796 202.86 18.324C202.38 18.852 202.14 19.62 202.14 20.628ZM232.118 9.90002C229.502 9.90002 228.194 10.812 228.194 12.636C228.194 13.476 228.494 14.076 229.094 14.436C229.694 14.772 231.062 15.132 233.198 15.516C235.334 15.876 236.846 16.392 237.734 17.064C238.622 17.736 239.066 18.996 239.066 20.844C239.066 22.692 238.466 24.048 237.266 24.912C236.09 25.776 234.362 26.208 232.082 26.208C230.594 26.208 228.842 26.04 226.826 25.704L225.746 25.524L225.89 23.184C228.626 23.592 230.69 23.796 232.082 23.796C233.474 23.796 234.53 23.58 235.25 23.148C235.994 22.692 236.366 21.948 236.366 20.916C236.366 19.86 236.054 19.152 235.43 18.792C234.806 18.408 233.438 18.048 231.326 17.712C229.214 17.376 227.714 16.884 226.826 16.236C225.938 15.588 225.494 14.388 225.494 12.636C225.494 10.884 226.106 9.58802 227.33 8.74802C228.578 7.90802 230.126 7.48802 231.974 7.48802C233.438 7.48802 235.274 7.65602 237.482 7.99202L238.49 8.17202L238.418 10.476C235.754 10.092 233.654 9.90002 232.118 9.90002ZM255.44 23.616L256.484 23.508L256.556 25.632C253.82 26.016 251.48 26.208 249.536 26.208C246.944 26.208 245.108 25.464 244.028 23.976C242.948 22.464 242.408 20.124 242.408 16.956C242.408 10.644 244.916 7.48802 249.932 7.48802C252.356 7.48802 254.168 8.17202 255.368 9.54002C256.568 10.884 257.168 13.008 257.168 15.912L257.024 17.964H245.144C245.144 19.956 245.504 21.432 246.224 22.392C246.944 23.352 248.192 23.832 249.968 23.832C251.768 23.832 253.592 23.76 255.44 23.616ZM254.468 15.804C254.468 13.596 254.108 12.036 253.388 11.124C252.692 10.212 251.54 9.75602 249.932 9.75602C248.348 9.75602 247.148 10.236 246.332 11.196C245.54 12.156 245.132 13.692 245.108 15.804H254.468ZM264.076 25.848H261.376V7.84802H264.04V9.10802C265.984 8.02802 267.844 7.48802 269.62 7.48802C272.02 7.48802 273.628 8.13602 274.444 9.43202C275.284 10.728 275.704 13.032 275.704 16.344V25.848H273.04V16.416C273.04 13.92 272.788 12.216 272.284 11.304C271.804 10.368 270.76 9.90002 269.152 9.90002C268.384 9.90002 267.568 10.02 266.704 10.26C265.864 10.476 265.216 10.692 264.76 10.908L264.076 11.232V25.848ZM283.412 25.848H280.712V2.0504e-05H283.412V8.85602C285.332 7.94402 287.18 7.48802 288.956 7.48802C291.356 7.48802 292.964 8.13602 293.78 9.43202C294.62 10.728 295.04 13.032 295.04 16.344V25.848H292.34V16.416C292.34 13.92 292.088 12.216 291.584 11.304C291.104 10.368 290.072 9.90002 288.488 9.90002C286.976 9.90002 285.512 10.176 284.096 10.728L283.412 10.98V25.848ZM312.756 13.284V22.5C312.828 23.388 313.524 23.916 314.844 24.084L314.736 26.208C312.84 26.208 311.412 25.728 310.452 24.768C308.292 25.728 306.132 26.208 303.972 26.208C302.316 26.208 301.056 25.74 300.192 24.804C299.328 23.868 298.896 22.524 298.896 20.772C298.896 19.02 299.34 17.736 300.228 16.92C301.116 16.08 302.508 15.564 304.404 15.372L310.056 14.832V13.284C310.056 12.06 309.792 11.184 309.264 10.656C308.736 10.128 308.016 9.86402 307.104 9.86402C305.184 9.86402 303.192 9.98402 301.128 10.224L300.012 10.332L299.904 8.28002C302.544 7.75202 304.884 7.48802 306.924 7.48802C308.964 7.48802 310.44 7.95602 311.352 8.89202C312.288 9.82802 312.756 11.292 312.756 13.284ZM301.668 20.628C301.668 22.836 302.58 23.94 304.404 23.94C306.036 23.94 307.644 23.664 309.228 23.112L310.056 22.824V16.884L304.728 17.388C303.648 17.484 302.868 17.796 302.388 18.324C301.908 18.852 301.668 19.62 301.668 20.628Z" fill="#777777"/>
</svg>
