<svg width="420" height="161" viewBox="0 0 420 161" fill="none" xmlns="http://www.w3.org/2000/svg">
<rect width="420" height="161" rx="24" fill="#D9D9D9"/>
<path d="M79.3636 70H72.3182C71.9015 67.9735 71.1724 66.1932 70.1307 64.6591C69.108 63.125 67.858 61.8371 66.3807 60.7955C64.9223 59.7348 63.303 58.9394 61.5227 58.4091C59.7424 57.8788 57.8864 57.6136 55.9545 57.6136C52.4318 57.6136 49.2405 58.5038 46.3807 60.2841C43.5398 62.0644 41.2765 64.6875 39.5909 68.1534C37.9242 71.6193 37.0909 75.8712 37.0909 80.9091C37.0909 85.947 37.9242 90.1989 39.5909 93.6648C41.2765 97.1307 43.5398 99.7538 46.3807 101.534C49.2405 103.314 52.4318 104.205 55.9545 104.205C57.8864 104.205 59.7424 103.939 61.5227 103.409C63.303 102.879 64.9223 102.093 66.3807 101.051C67.858 99.9905 69.108 98.6932 70.1307 97.1591C71.1724 95.6061 71.9015 93.8258 72.3182 91.8182H79.3636C78.8333 94.7917 77.8674 97.4527 76.4659 99.8011C75.0644 102.15 73.322 104.148 71.2386 105.795C69.1553 107.424 66.8163 108.665 64.2216 109.517C61.6458 110.369 58.8902 110.795 55.9545 110.795C50.9924 110.795 46.5795 109.583 42.7159 107.159C38.8523 104.735 35.8125 101.288 33.5966 96.8182C31.3807 92.3485 30.2727 87.0455 30.2727 80.9091C30.2727 74.7727 31.3807 69.4697 33.5966 65C35.8125 60.5303 38.8523 57.0833 42.7159 54.6591C46.5795 52.2348 50.9924 51.0227 55.9545 51.0227C58.8902 51.0227 61.6458 51.4489 64.2216 52.3011C66.8163 53.1534 69.1553 54.4034 71.2386 56.0511C73.322 57.6799 75.0644 59.6686 76.4659 62.017C77.8674 64.3466 78.8333 67.0076 79.3636 70ZM107.567 110.909C103.627 110.909 100.171 109.972 97.1974 108.097C94.2429 106.222 91.9323 103.598 90.2656 100.227C88.6179 96.8561 87.794 92.9167 87.794 88.4091C87.794 83.8636 88.6179 79.8958 90.2656 76.5057C91.9323 73.1155 94.2429 70.483 97.1974 68.608C100.171 66.733 103.627 65.7955 107.567 65.7955C111.506 65.7955 114.953 66.733 117.908 68.608C120.881 70.483 123.192 73.1155 124.839 76.5057C126.506 79.8958 127.339 83.8636 127.339 88.4091C127.339 92.9167 126.506 96.8561 124.839 100.227C123.192 103.598 120.881 106.222 117.908 108.097C114.953 109.972 111.506 110.909 107.567 110.909ZM107.567 104.886C110.559 104.886 113.021 104.119 114.953 102.585C116.885 101.051 118.315 99.0341 119.243 96.5341C120.171 94.0341 120.635 91.3258 120.635 88.4091C120.635 85.4924 120.171 82.7746 119.243 80.2557C118.315 77.7367 116.885 75.7008 114.953 74.1477C113.021 72.5947 110.559 71.8182 107.567 71.8182C104.574 71.8182 102.112 72.5947 100.18 74.1477C98.2486 75.7008 96.8187 77.7367 95.8906 80.2557C94.9626 82.7746 94.4986 85.4924 94.4986 88.4091C94.4986 91.3258 94.9626 94.0341 95.8906 96.5341C96.8187 99.0341 98.2486 101.051 100.18 102.585C102.112 104.119 104.574 104.886 107.567 104.886ZM144.278 83.75V110H137.574V66.3636H144.051V73.1818H144.619C145.642 70.9659 147.195 69.1856 149.278 67.8409C151.362 66.4773 154.051 65.7955 157.347 65.7955C160.301 65.7955 162.886 66.4015 165.102 67.6136C167.318 68.8068 169.042 70.625 170.273 73.0682C171.504 75.4924 172.119 78.5606 172.119 82.2727V110H165.415V82.7273C165.415 79.2992 164.525 76.6288 162.744 74.7159C160.964 72.7841 158.521 71.8182 155.415 71.8182C153.275 71.8182 151.362 72.2822 149.676 73.2102C148.009 74.1383 146.693 75.4924 145.727 77.2727C144.761 79.053 144.278 81.2121 144.278 83.75ZM203.348 66.3636V72.0455H180.734V66.3636H203.348ZM187.325 55.9091H194.03V97.5C194.03 99.3939 194.304 100.814 194.854 101.761C195.422 102.689 196.142 103.314 197.013 103.636C197.903 103.939 198.84 104.091 199.825 104.091C200.564 104.091 201.17 104.053 201.643 103.977C202.117 103.883 202.496 103.807 202.78 103.75L204.143 109.773C203.689 109.943 203.054 110.114 202.24 110.284C201.426 110.473 200.393 110.568 199.143 110.568C197.25 110.568 195.393 110.161 193.575 109.347C191.776 108.532 190.28 107.292 189.087 105.625C187.912 103.958 187.325 101.856 187.325 99.3182V55.9091ZM213.433 110V66.3636H220.138V110H213.433ZM216.842 59.0909C215.536 59.0909 214.409 58.6458 213.462 57.7557C212.534 56.8655 212.07 55.7955 212.07 54.5455C212.07 53.2955 212.534 52.2254 213.462 51.3352C214.409 50.4451 215.536 50 216.842 50C218.149 50 219.267 50.4451 220.195 51.3352C221.142 52.2254 221.615 53.2955 221.615 54.5455C221.615 55.7955 221.142 56.8655 220.195 57.7557C219.267 58.6458 218.149 59.0909 216.842 59.0909ZM239.122 83.75V110H232.418V66.3636H238.895V73.1818H239.463C240.486 70.9659 242.039 69.1856 244.122 67.8409C246.205 66.4773 248.895 65.7955 252.19 65.7955C255.145 65.7955 257.73 66.4015 259.946 67.6136C262.162 68.8068 263.885 70.625 265.116 73.0682C266.348 75.4924 266.963 78.5606 266.963 82.2727V110H260.259V82.7273C260.259 79.2992 259.368 76.6288 257.588 74.7159C255.808 72.7841 253.365 71.8182 250.259 71.8182C248.118 71.8182 246.205 72.2822 244.52 73.2102C242.853 74.1383 241.537 75.4924 240.571 77.2727C239.605 79.053 239.122 81.2121 239.122 83.75ZM306.714 92.1591V66.3636H313.419V110H306.714V102.614H306.26C305.237 104.83 303.646 106.714 301.487 108.267C299.328 109.801 296.601 110.568 293.305 110.568C290.578 110.568 288.154 109.972 286.033 108.778C283.911 107.566 282.245 105.748 281.033 103.324C279.821 100.881 279.214 97.803 279.214 94.0909V66.3636H285.919V93.6364C285.919 96.8182 286.809 99.3561 288.589 101.25C290.389 103.144 292.68 104.091 295.464 104.091C297.131 104.091 298.826 103.665 300.55 102.812C302.292 101.96 303.75 100.653 304.925 98.892C306.118 97.1307 306.714 94.8864 306.714 92.1591ZM338.54 111.023C335.775 111.023 333.265 110.502 331.011 109.46C328.758 108.4 326.968 106.875 325.642 104.886C324.316 102.879 323.653 100.455 323.653 97.6136C323.653 95.1136 324.146 93.0871 325.131 91.5341C326.116 89.9621 327.432 88.7311 329.08 87.8409C330.727 86.9508 332.545 86.2879 334.534 85.8523C336.542 85.3977 338.559 85.0379 340.585 84.7727C343.237 84.4318 345.386 84.1761 347.034 84.0057C348.701 83.8163 349.913 83.5038 350.67 83.0682C351.447 82.6326 351.835 81.875 351.835 80.7955V80.5682C351.835 77.7652 351.068 75.5871 349.534 74.0341C348.019 72.4811 345.718 71.7045 342.631 71.7045C339.43 71.7045 336.92 72.4053 335.102 73.8068C333.284 75.2083 332.006 76.7045 331.267 78.2955L324.903 76.0227C326.04 73.3712 327.555 71.3068 329.449 69.8295C331.362 68.3333 333.445 67.2917 335.699 66.7045C337.972 66.0985 340.206 65.7955 342.403 65.7955C343.805 65.7955 345.415 65.9659 347.233 66.3068C349.07 66.6288 350.841 67.3011 352.545 68.3239C354.269 69.3466 355.699 70.8902 356.835 72.9545C357.972 75.0189 358.54 77.7841 358.54 81.25V110H351.835V104.091H351.494C351.04 105.038 350.282 106.051 349.222 107.131C348.161 108.21 346.75 109.129 344.989 109.886C343.227 110.644 341.078 111.023 338.54 111.023ZM339.562 105C342.214 105 344.449 104.479 346.267 103.438C348.104 102.396 349.487 101.051 350.415 99.4034C351.362 97.7557 351.835 96.0227 351.835 94.2045V88.0682C351.551 88.4091 350.926 88.7216 349.96 89.0057C349.013 89.2708 347.915 89.5076 346.665 89.7159C345.434 89.9053 344.231 90.0758 343.057 90.2273C341.902 90.3598 340.964 90.4735 340.244 90.5682C338.502 90.7955 336.873 91.1648 335.358 91.6761C333.862 92.1686 332.65 92.9167 331.722 93.9205C330.813 94.9053 330.358 96.25 330.358 97.9545C330.358 100.284 331.22 102.045 332.943 103.239C334.686 104.413 336.892 105 339.562 105ZM370.777 110V66.3636H377.254V72.9545H377.709C378.504 70.7955 379.944 69.0436 382.027 67.6989C384.11 66.3542 386.459 65.6818 389.072 65.6818C389.565 65.6818 390.18 65.6913 390.919 65.7102C391.658 65.7292 392.216 65.7576 392.595 65.7955V72.6136C392.368 72.5568 391.847 72.4716 391.033 72.358C390.237 72.2254 389.394 72.1591 388.504 72.1591C386.383 72.1591 384.489 72.6042 382.822 73.4943C381.175 74.3655 379.868 75.5777 378.902 77.1307C377.955 78.6648 377.482 80.4167 377.482 82.3864V110H370.777Z" fill="black"/>
</svg>
