<svg width="179" height="45" viewBox="0 0 179 45" fill="none" xmlns="http://www.w3.org/2000/svg">
<path d="M66.1211 34H52.2971V9.34H56.2931V30.436H66.1211V34ZM81.7311 30.76L82.7391 30.652L82.8111 33.568C80.0751 34.12 77.6511 34.396 75.5391 34.396C72.8751 34.396 70.9551 33.664 69.7791 32.2C68.6271 30.736 68.0511 28.396 68.0511 25.18C68.0511 18.796 70.6551 15.604 75.8631 15.604C80.9031 15.604 83.4231 18.352 83.4231 23.848L83.1711 26.656H72.0111C72.0351 28.144 72.3591 29.236 72.9831 29.932C73.6071 30.628 74.7711 30.976 76.4751 30.976C78.1791 30.976 79.9311 30.904 81.7311 30.76ZM79.5711 23.632C79.5711 21.856 79.2831 20.62 78.7071 19.924C78.1551 19.204 77.2071 18.844 75.8631 18.844C74.5191 18.844 73.5351 19.216 72.9111 19.96C72.3111 20.704 71.9991 21.928 71.9751 23.632H79.5711ZM91.1203 34H87.1963V16H91.0843V17.116C92.7883 16.108 94.3483 15.604 95.7643 15.604C97.8523 15.604 99.3763 16.192 100.336 17.368C102.52 16.192 104.692 15.604 106.852 15.604C109.012 15.604 110.536 16.276 111.424 17.62C112.312 18.94 112.756 21.184 112.756 24.352V34H108.868V24.46C108.868 22.516 108.664 21.136 108.256 20.32C107.872 19.504 107.056 19.096 105.808 19.096C104.728 19.096 103.564 19.336 102.316 19.816L101.704 20.068C101.896 20.548 101.992 22.084 101.992 24.676V34H98.1043V24.748C98.1043 22.612 97.9123 21.136 97.5283 20.32C97.1443 19.504 96.3043 19.096 95.0083 19.096C93.8083 19.096 92.6923 19.336 91.6603 19.816L91.1203 20.032V34ZM125.748 15.604C128.22 15.604 129.996 16.3 131.076 17.692C132.18 19.06 132.732 21.496 132.732 25C132.732 28.504 132.084 30.952 130.788 32.344C129.492 33.712 127.212 34.396 123.948 34.396C122.82 34.396 121.032 34.288 118.584 34.072L117.36 33.964V8.512H121.248V16.684C122.904 15.964 124.404 15.604 125.748 15.604ZM123.948 30.904C125.868 30.904 127.14 30.46 127.764 29.572C128.412 28.66 128.736 27.124 128.736 24.964C128.736 22.804 128.46 21.292 127.908 20.428C127.38 19.54 126.504 19.096 125.28 19.096C124.128 19.096 122.976 19.276 121.824 19.636L121.248 19.816V30.76C122.568 30.856 123.468 30.904 123.948 30.904ZM136.661 34V16H140.549V18.16C142.589 16.84 144.629 15.988 146.669 15.604V19.528C144.605 19.936 142.841 20.464 141.377 21.112L140.585 21.436V34H136.661ZM162.989 21.544V29.752C163.013 30.28 163.145 30.676 163.385 30.94C163.649 31.18 164.045 31.336 164.573 31.408L164.465 34.396C162.401 34.396 160.805 33.952 159.677 33.064C157.757 33.952 155.825 34.396 153.881 34.396C150.305 34.396 148.517 32.488 148.517 28.672C148.517 26.848 148.997 25.528 149.957 24.712C150.941 23.896 152.441 23.404 154.457 23.236L159.101 22.84V21.544C159.101 20.584 158.885 19.912 158.453 19.528C158.045 19.144 157.433 18.952 156.617 18.952C155.081 18.952 153.161 19.048 150.857 19.24L149.705 19.312L149.561 16.54C152.177 15.916 154.577 15.604 156.761 15.604C158.969 15.604 160.553 16.084 161.513 17.044C162.497 17.98 162.989 19.48 162.989 21.544ZM154.925 26.008C153.269 26.152 152.441 27.052 152.441 28.708C152.441 30.364 153.173 31.192 154.637 31.192C155.837 31.192 157.109 31 158.453 30.616L159.101 30.4V25.612L154.925 26.008ZM167.915 34V16H171.803V18.16C173.843 16.84 175.883 15.988 177.923 15.604V19.528C175.859 19.936 174.095 20.464 172.631 21.112L171.839 21.436V34H167.915Z" fill="#777777"/>
<path d="M9.375 39.375C8.34375 39.375 7.46094 39.0078 6.72656 38.2734C5.99219 37.5391 5.625 36.6562 5.625 35.625V9.375C5.625 8.34375 5.99219 7.46094 6.72656 6.72656C7.46094 5.99219 8.34375 5.625 9.375 5.625H35.625C36.6562 5.625 37.5391 5.99219 38.2734 6.72656C39.0078 7.46094 39.375 8.34375 39.375 9.375V35.625C39.375 36.6562 39.0078 37.5391 38.2734 38.2734C37.5391 39.0078 36.6562 39.375 35.625 39.375H9.375ZM9.375 35.625H35.625V9.375H9.375V35.625Z" fill="#777777"/>
</svg>
