<svg width="279" height="120" viewBox="0 0 279 120" fill="none" xmlns="http://www.w3.org/2000/svg">
<path d="M49.1522 89.6H0.000184059V1.91997H14.2082V76.928H49.1522V89.6ZM62.5422 32.512C66.9795 26.9653 74.3182 24.192 84.5582 24.192C94.7982 24.192 102.094 26.9653 106.446 32.512C110.884 38.0586 113.102 46.3786 113.102 57.472C113.102 68.5653 110.969 76.928 106.702 82.56C102.436 88.192 95.0542 91.008 84.5582 91.008C74.0622 91.008 66.6809 88.192 62.4142 82.56C58.1475 76.928 56.0142 68.5653 56.0142 57.472C56.0142 46.3786 58.1902 38.0586 62.5422 32.512ZM73.0382 74.112C75.0009 77.5253 78.8409 79.232 84.5582 79.232C90.2755 79.232 94.1155 77.5253 96.0782 74.112C98.0409 70.6986 99.0222 65.1093 99.0222 57.344C99.0222 49.5786 97.9555 44.0746 95.8222 40.832C93.7742 37.5893 90.0195 35.968 84.5582 35.968C79.0969 35.968 75.2995 37.5893 73.1662 40.832C71.1182 44.0746 70.0942 49.5786 70.0942 57.344C70.0942 65.1093 71.0755 70.6986 73.0382 74.112ZM182.897 98.304C182.897 112.299 172.785 119.296 152.561 119.296C142.833 119.296 135.623 117.973 130.929 115.328C126.236 112.683 123.889 107.861 123.889 100.864C123.889 97.7066 124.657 94.976 126.193 92.672C127.729 90.4533 130.204 88.0213 133.617 85.376C130.801 83.4986 129.393 80.384 129.393 76.032C129.393 74.3253 130.545 71.552 132.849 67.712L134.001 65.792C127.857 62.1226 124.785 55.7226 124.785 46.592C124.785 38.912 127.089 33.28 131.697 29.696C136.305 26.112 142.535 24.32 150.385 24.32C154.14 24.32 157.852 24.7466 161.521 25.6L163.441 25.984L183.281 25.472V36.736L172.657 36.096C174.961 39.0826 176.113 42.5813 176.113 46.592C176.113 54.9546 173.98 60.7573 169.713 64C165.532 67.1573 158.961 68.736 150.001 68.736C147.783 68.736 145.905 68.5653 144.369 68.224C143.175 71.1253 142.577 73.3866 142.577 75.008C142.577 76.544 143.345 77.6106 144.881 78.208C146.503 78.8053 150.343 79.1466 156.401 79.232C166.556 79.3173 173.511 80.6826 177.265 83.328C181.02 85.9733 182.897 90.9653 182.897 98.304ZM137.585 99.584C137.585 102.571 138.78 104.704 141.169 105.984C143.559 107.264 147.655 107.904 153.457 107.904C163.783 107.904 168.945 104.96 168.945 99.072C168.945 95.744 168.007 93.6106 166.129 92.672C164.337 91.8186 160.711 91.3493 155.249 91.264L142.705 90.496C140.828 92.032 139.505 93.44 138.737 94.72C137.969 96.0853 137.585 97.7066 137.585 99.584ZM138.609 46.592C138.609 50.5173 139.548 53.4186 141.425 55.296C143.303 57.088 146.332 57.984 150.513 57.984C154.695 57.984 157.681 57.088 159.473 55.296C161.351 53.4186 162.289 50.5173 162.289 46.592C162.289 42.6666 161.351 39.808 159.473 38.016C157.596 36.1386 154.567 35.2 150.385 35.2C142.535 35.2 138.609 38.9973 138.609 46.592ZM194.211 89.6V25.6H208.163V89.6H194.211ZM194.211 14.72V-3.05176e-05H208.163V14.72H194.211ZM239.038 89.6H225.086V25.6H238.91V29.568C245.14 25.984 251.028 24.192 256.574 24.192C265.108 24.192 270.91 26.624 273.982 31.488C277.14 36.2666 278.718 44.2026 278.718 55.296V89.6H264.894V55.68C264.894 48.768 264.126 43.8613 262.59 40.96C261.14 38.0586 258.11 36.608 253.502 36.608C249.15 36.608 244.969 37.4613 240.958 39.168L239.038 39.936V89.6Z" fill="black"/>
</svg>
